<svg width="24" height="24" viewBox="0 0 24 24" fill="none" xmlns="http://www.w3.org/2000/svg">
<path d="M9 22H21M7.12 9.13001L14.87 16.88M3.52 17.66L9.17 12M6.34 20.49L12 14.83M2.91 17.58L6.42 21.09C6.9825 21.6518 7.745 21.9674 8.54 21.9674C9.335 21.9674 10.0975 21.6518 10.66 21.09L21.09 10.66C21.6518 10.0975 21.9674 9.33502 21.9674 8.54001C21.9674 7.74501 21.6518 6.98252 21.09 6.42001L17.58 2.91001C17.0175 2.34821 16.255 2.03265 15.46 2.03265C14.665 2.03265 13.9025 2.34821 13.34 2.91001L2.91 13.34C2.3482 13.9025 2.03264 14.665 2.03264 15.46C2.03264 16.255 2.3482 17.0175 2.91 17.58V17.58Z" stroke="black" stroke-width="1.5" stroke-linecap="round" stroke-linejoin="round"/>
</svg>
